/* XPM */
static char * stack_xpm[] = {
"16 12 6 1",
" 	c None",
".	c #00FF00",
"+	c #000000",
"@	c #FFFF00",
"#	c #0000FF",
"$	c #FF0000",
"         ...    ",
"         ...    ",
"         ...    ",
"    +   @@@@@   ",
"    ++  @@@@@   ",
"+++++++ @@@@@   ",
"+++++++#######  ",
"    ++ #######  ",
"    +  #######  ",
"      $$$$$$$$$ ",
"      $$$$$$$$$ ",
"      $$$$$$$$$ "};
