/* XPM */
static char * interactor_xpm[] = {
"16 16 71 1",
" 	c None",
".	c #F0F0F0",
"+	c #F7F7F7",
"@	c #E6E6E6",
"#	c #7B7A7D",
"$	c #161417",
"%	c #0E0C0F",
"&	c #110E12",
"*	c #121115",
"=	c #0F0E10",
"-	c #7D7B7F",
";	c #E2E2E2",
">	c #141316",
",	c #1B191D",
"'	c #1F1C21",
")	c #201E23",
"!	c #D9D9D9",
"~	c #D6D6D6",
"{	c #D3C8E1",
"]	c #C4BAD2",
"^	c #726B79",
"/	c #231E27",
"(	c #211E24",
"_	c #D2D2D2",
":	c #2D2832",
"<	c #524B58",
"[	c #C7BDD4",
"}	c #2C272F",
"|	c #28242C",
"1	c #242027",
"2	c #CFCFCF",
"3	c #0F0E11",
"4	c #4C4552",
"5	c #B8ADC3",
"6	c #787181",
"7	c #2C2632",
"8	c #262229",
"9	c #151318",
"0	c #050506",
"a	c #C9C8CA",
"b	c #2F2936",
"c	c #B2A9BE",
"d	c #5E5864",
"e	c #211C25",
"f	c #19161D",
"g	c #CBCBCB",
"h	c #2B2630",
"i	c #D1C6DF",
"j	c #09070A",
"k	c #C4C4C4",
"l	c #0E0C10",
"m	c #1F1B24",
"n	c #29232E",
"o	c #362E3D",
"p	c #393241",
"q	c #0B0A0D",
"r	c #C1C1C1",
"s	c #3E3646",
"t	c #433A4C",
"u	c #231F28",
"v	c #B7B7B7",
"w	c #393141",
"x	c #4C4256",
"y	c #919191",
"z	c #5B5A5C",
"A	c #19161B",
"B	c #17141A",
"C	c #3B3B3B",
"D	c #888888",
"E	c #9B9B9B",
"F	c #000000",
"                ",
"  .++++++++++.  ",
" @#$%%&%*===$-@ ",
" ;>,'''',)'',$; ",
" !%''')'')'')=! ",
" ~%'{{]^/())'%~ ",
" _%(::<[:}||1%_ ",
" 23|:45678,9&02 ",
" a*b8cd88(ef&0g ",
" a>hbibbb{{{fja ",
" klmnbopppppmqk ",
" r%(b{sttso7u%r ",
" v>ebwtxxtpbe>v ",
" yzAB'muue'9Azy ",
" CDEEEEEEEEEEDC ",
"  FFFFFFFFFFFF  "};
