<?xml version="1.0" encoding="UTF-8" standalone="no"?>
<!-- Created with Inkscape (http://www.inkscape.org/) -->

<svg
   xmlns:dc="http://purl.org/dc/elements/1.1/"
   xmlns:cc="http://creativecommons.org/ns#"
   xmlns:rdf="http://www.w3.org/1999/02/22-rdf-syntax-ns#"
   xmlns:svg="http://www.w3.org/2000/svg"
   xmlns="http://www.w3.org/2000/svg"
   xmlns:sodipodi="http://sodipodi.sourceforge.net/DTD/sodipodi-0.dtd"
   xmlns:inkscape="http://www.inkscape.org/namespaces/inkscape"
   width="451.09"
   height="495.35999"
   id="svg2"
   version="1.1"
   inkscape:version="0.48.4 r9939"
   sodipodi:docname="red_bird.svg">
  <defs
     id="defs4" />
  <sodipodi:namedview
     id="base"
     pagecolor="#ffffff"
     bordercolor="#666666"
     borderopacity="1.0"
     inkscape:pageopacity="0"
     inkscape:pageshadow="2"
     inkscape:zoom="2.8"
     inkscape:cx="257.02754"
     inkscape:cy="252.02474"
     inkscape:document-units="px"
     inkscape:current-layer="layer1"
     showgrid="false"
     inkscape:window-width="1364"
     inkscape:window-height="699"
     inkscape:window-x="0"
     inkscape:window-y="21"
     inkscape:window-maximized="0" />
  <metadata
     id="metadata7">
    <rdf:RDF>
      <cc:Work
         rdf:about="">
        <dc:format>image/svg+xml</dc:format>
        <dc:type
           rdf:resource="http://purl.org/dc/dcmitype/StillImage" />
        <dc:title></dc:title>
      </cc:Work>
    </rdf:RDF>
  </metadata>
  <g
     inkscape:label="Layer 1"
     inkscape:groupmode="layer"
     id="layer1"
     transform="translate(0,-556.9991)"
     style="opacity:0.4">
    <g
       id="g3076"
       transform="translate(-155.14286,228.28571)">
      <path
         inkscape:connector-curvature="0"
         id="path3064"
         d="m 158.32913,821.44709 c 0.97322,-0.92566 32.46591,-28.78771 69.98377,-61.91565 37.51786,-33.12795 71.42857,-63.44062 75.35714,-67.36148 12.28092,-12.25682 21.75679,-20.66685 22.12264,-19.63429 0.33554,0.94701 11.09165,45.54799 11.09165,45.99231 0,0.42184 -179.15343,104.60213 -179.87883,104.60213 -0.24522,0 0.35042,-0.75736 1.32363,-1.68302 z"
         style="fill:#ec2523;fill-opacity:0.99607842999999996" />
      <path
         inkscape:connector-curvature="0"
         id="path3066"
         d="m 305.24063,676.52297 c -4.1889,-10.45074 -23.08053,-55.49526 -79.55578,-189.6899 -25.34807,-60.23124 -45.97463,-109.62254 -45.83681,-109.75845 0.13781,-0.13591 18.572,15.17957 40.96486,34.03441 22.39285,18.85483 43.28571,36.22261 46.42857,38.59505 l 5.71429,4.31353 26.10919,107.88507 26.10919,107.88507 -8.00722,7.38547 c -4.40398,4.062 -8.16431,7.38546 -8.35631,7.38546 -0.19199,0 -1.79848,-3.61607 -3.56998,-8.03571 z"
         style="fill:#b81f25;fill-opacity:0.99607842999999996" />
      <path
         inkscape:connector-curvature="0"
         id="path3068"
         d="m 337.66956,714.79694 c -3.88394,-14.55799 -62.87414,-260.46197 -62.59203,-260.91843 0.48079,-0.77794 -3.17835,-16.26557 -17.81212,-75.39126 -6.51462,-26.32143 -11.75651,-48.25231 -11.64864,-48.7353 0.10787,-0.48298 40.53541,46.56717 89.83899,104.5559 85.71639,100.81591 102.95764,120.89157 110.04367,128.13452 3.37042,3.44505 52.32628,61.09783 52.64354,61.99555 0.10296,0.29137 -2.62918,2.16362 -6.07143,4.16056 -3.44226,1.99694 -38.98627,22.65569 -78.98671,45.90834 -40.00044,23.25265 -73.16832,42.44648 -73.7064,42.65296 -0.66211,0.25408 -1.21445,-0.50963 -1.70887,-2.36284 l 0,0 z"
         style="fill:#c92126;fill-opacity:1" />
      <path
         inkscape:connector-curvature="0"
         id="path3072"
         d="m 473.63517,593.00871 c -13.6118,-16.06521 -24.659,-29.33534 -24.54933,-29.48918 0.10967,-0.15384 2.51961,-2.21163 5.35543,-4.57286 8.56386,-7.13068 26.05807,-22.38075 37.81185,-32.96141 6.09786,-5.48923 11.15738,-9.91007 11.24337,-9.82408 0.34358,0.34358 -2.54085,66.79528 -2.91028,67.04729 -0.21823,0.14888 -0.6513,7.53562 -0.96237,16.41498 -0.31107,8.87937 -0.71731,17.59565 -0.90276,19.36951 l -0.33717,3.22523 -24.74874,-29.20948 z"
         style="fill:#ec1c23;fill-opacity:0.99607842999999996" />
      <path
         inkscape:connector-curvature="0"
         id="path3074"
         d="m 502.4735,580.53868 c 0.002,-1.18062 0.56864,-15.66999 1.25839,-32.19861 0.68976,-16.52862 1.25604,-30.66668 1.2584,-31.41791 l 0.004,-1.36587 4.67196,2.695 c 2.56957,1.48225 24.44569,13.88614 48.61359,27.56419 24.1679,13.67806 44.58418,25.32443 45.36951,25.88082 0.78533,0.5564 1.23752,1.20199 1.00487,1.43464 -0.23265,0.23265 -9.73928,1.23471 -21.12585,2.2268 -29.49177,2.56957 -57.54764,5.15612 -68.5875,6.32328 -13.22314,1.39797 -12.47288,1.46671 -12.46766,-1.14234 z"
         style="fill:#ec1c23;fill-opacity:0.99607842999999996" />
    </g>
  </g>
</svg>
