<?xml version="1.0" encoding="utf-8"?>
<!-- Generator: Adobe Illustrator 16.0.0, SVG Export Plug-In . SVG Version: 6.00 Build 0)  -->
<!DOCTYPE svg PUBLIC "-//W3C//DTD SVG 1.1//EN" "http://www.w3.org/Graphics/SVG/1.1/DTD/svg11.dtd">
<svg version="1.1" id="圖層_1" xmlns="http://www.w3.org/2000/svg" xmlns:xlink="http://www.w3.org/1999/xlink" x="0px" y="0px"
	 width="100px" height="100px" viewBox="0 0 100 100" enable-background="new 0 0 100 100" xml:space="preserve">
<g>
	<path fill-rule="evenodd" clip-rule="evenodd" fill="#DF5E3A" d="M-99.931,1.603C-73.184,1.624-51.498,23.279-51.5,49.965
		c-0.004,26.78-21.827,48.476-48.713,48.431c-26.607-0.046-48.394-21.958-48.287-48.567C-148.39,23.092-126.728,1.584-99.931,1.603z
		 M-99.795,5.587c-24.854-0.046-44.571,19.49-44.72,44.31c-0.144,24.392,19.822,44.455,44.302,44.515
		c24.698,0.061,44.688-19.778,44.719-44.388C-55.463,25.471-75.239,5.632-99.795,5.587z"/>
	<path fill-rule="evenodd" clip-rule="evenodd" fill="#DD5934" d="M-96.81,76.746c-1.959-5.024-3.383-10.142-2.619-15.624
		c2.929,1.1,5.788,2.491,8.806,3.231c5.944,1.464,11.898,1.707,17.317-1.919c0.811-0.542,1.363-1.465,2.035-2.211
		c-0.151-0.265-0.299-0.528-0.448-0.793c-1.663,0.143-3.341,0.184-4.987,0.448c-4.579,0.73-9.117,2.208-13.797,0.775
		c-1.887-0.574-4.45-1.108-4.092-3.58c0.376-2.585,3.019-2.205,4.939-2.03c7.96,0.732,14.56-2.861,21.128-6.509
		c1.798-0.998,1.252-2.441-0.371-2.828c-1.769-0.421-3.773-0.476-5.554-0.104c-3.893,0.815-7.707,1.999-11.557,3.033
		c0.833-5.452-0.203-10.595-2.612-15.494c-0.502-1.017-0.982-2.184-1.809-2.88c-7.525-6.332-15.035-12.764-25.685-12.854
		c-1.035-0.008-2.071,0.16-3.846,0.307c1.116,0.74,1.694,1.124,2.229,1.479c-1.12,0.839-2.276,1.709-3.436,2.579
		c0.076,0.211,0.153,0.419,0.23,0.63c3.754,0.278,7.511,0.557,11.264,0.836c-4.172,1.591-8.373,2.583-11.027,6.425
		c-0.237,0.366-0.475,0.73-0.713,1.096l0.177,0.089c0,0-0.178-0.083-0.178-0.081c-0.199,0.373-0.396,0.745-0.594,1.119
		c0,0,0.006,0.024,0.007,0.025c-2.107,3.072-1.773,6.551-1.32,9.896c0.826,6.108,1.817,12.204,3.022,18.247
		c1.892,9.488,4.017,18.927,6.042,28.387c-18.614-6.618-29.978-26.467-26.263-45.886c3.825-20.002,21.178-34.13,41.369-33.678
		c20.958,0.467,37.701,15.914,40.159,37.044c2.256,19.403-10.947,38.457-30.292,43.706c-0.265,0.073-0.549,0.075-1.034,0.136
		c-0.939-1.579-1.903-3.2-2.867-4.818l0.016-0.238c0.792-0.203,1.651-0.711,2.37-0.559c1.755,0.372,3.437,1.093,5.163,1.599
		c1.929,0.566,3.225,0.007,3.256-2.198c0.031-2.276,0.151-4.586-0.128-6.832c-0.504-4.063-1.298-4.354-4.877-2.165
		c-1.133,0.689-2.208,1.48-3.349,2.16c-0.535,0.319-1.175,0.704-1.744,0.669C-93.929,77.286-95.366,76.972-96.81,76.746z"/>
	<path fill-rule="evenodd" clip-rule="evenodd" fill="#FCD00C" d="M-86.008,48.637c3.85-1.034,7.664-2.218,11.557-3.033
		c1.78-0.372,3.785-0.318,5.554,0.104c1.623,0.387,2.169,1.831,0.371,2.828c-6.568,3.647-13.168,7.241-21.128,6.509
		c-1.921-0.175-4.563-0.555-4.939,2.03c-0.358,2.472,2.205,3.006,4.092,3.58c4.68,1.433,9.218-0.045,13.797-0.775
		c1.646-0.265,3.324-0.306,4.987-0.448c0.149,0.265,0.297,0.528,0.448,0.793c-0.672,0.746-1.225,1.669-2.035,2.211
		c-5.419,3.626-11.373,3.383-17.317,1.919c-3.019-0.74-5.877-2.132-8.806-3.231c-4.26-4.4-3.315-8.602,2.623-10.518
		c2.563-0.828,5.379-0.865,8.076-1.305C-87.812,49.148-86.914,48.86-86.008,48.637z"/>
	<path fill-rule="evenodd" clip-rule="evenodd" fill="#69BC48" d="M-96.81,76.746c1.443,0.226,2.881,0.54,4.333,0.634
		c0.569,0.035,1.209-0.35,1.744-0.669c1.141-0.68,2.216-1.471,3.349-2.16c3.579-2.188,4.373-1.898,4.877,2.165
		c0.279,2.246,0.159,4.556,0.128,6.832c-0.031,2.205-1.327,2.765-3.256,2.198c-1.727-0.506-3.408-1.227-5.163-1.599
		c-0.719-0.152-1.578,0.355-2.37,0.559c-0.506-0.052-1.027-0.214-1.514-0.141c-4.168,0.623-4.577,0.306-4.818-3.795
		c-0.028-0.489-0.208-0.973-0.322-1.46c-0.262,0.008-0.524,0.015-0.788,0.023c0,2.096,0,4.19,0,6.285
		c-2.258,1.119-4.518,2.241-7.093,3.521c-1.794-4.931-1.506-9.479-1.399-14.78c2.694,0.931,4.987,1.466,7.029,2.498
		C-100.168,77.823-98.54,77.938-96.81,76.746z"/>
	<path fill-rule="evenodd" clip-rule="evenodd" fill="#D6D3D2" d="M-114.256,88.44c-2.025-9.46-4.151-18.898-6.042-28.387
		c-1.206-6.043-2.196-12.139-3.022-18.247c-0.453-3.345-0.788-6.823,1.32-9.896c0.17,19.453,6.386,37.859,9.837,57.013
		C-112.91,88.752-113.583,88.593-114.256,88.44z"/>
	<path fill-rule="evenodd" clip-rule="evenodd" fill="#395993" d="M-108.138,44.079c-1.181,0.771-2.289,2.005-3.558,2.202
		c-1.856,0.288-2.997-1.159-2.977-2.983c0.02-1.851,1.286-3.216,3.077-2.914c1.259,0.214,2.333,1.52,3.49,2.338
		C-108.116,43.174-108.127,43.626-108.138,44.079z"/>
	<path fill-rule="evenodd" clip-rule="evenodd" fill="#395993" d="M-91.147,37.706c1.348,1.769,2.773,2.832,2.687,3.746
		c-0.097,0.96-1.551,2.314-2.581,2.48c-0.725,0.119-2.377-1.416-2.434-2.287C-93.537,40.637-92.309,39.545-91.147,37.706z"/>
	<path fill-rule="evenodd" clip-rule="evenodd" fill="#55AD52" d="M-100.609,85.619c0-2.095,0-4.189,0-6.285
		c0.264-0.009,0.526-0.016,0.788-0.023c0.113,0.487,0.294,0.971,0.322,1.46c0.241,4.101,0.65,4.418,4.818,3.795
		c0.486-0.073,1.008,0.089,1.514,0.141l-0.016,0.238C-95.659,85.171-98.135,85.393-100.609,85.619z"/>
	<path fill-rule="evenodd" clip-rule="evenodd" fill="#D6D3D2" d="M-121.413,30.76c0.239-0.365,0.476-0.73,0.713-1.096
		C-120.937,30.03-121.174,30.395-121.413,30.76z"/>
	<path fill-rule="evenodd" clip-rule="evenodd" fill="#D6D3D2" d="M-122.008,31.887c0.198-0.374,0.396-0.746,0.594-1.119
		C-121.613,31.139-121.81,31.512-122.008,31.887z"/>
</g>
<g>
	<path fill-rule="evenodd" clip-rule="evenodd" fill="#CD0000" d="M40.771,87.403c-1.824,0-3.647,0-5.472,0
		c-0.069-0.026-0.136-0.071-0.207-0.077c-1.246-0.111-2.496-0.191-3.738-0.331c-3.934-0.44-7.758-1.348-11.446-2.792
		c-4.679-1.832-8.896-4.379-12.309-8.124c-3.451-3.788-5.637-8.188-6.287-13.306c-0.067-0.53-0.153-1.057-0.23-1.585
		c0-1.226,0-2.45,0-3.676c0.027-0.097,0.067-0.193,0.08-0.292c0.104-0.837,0.177-1.678,0.308-2.509
		c0.521-3.313,1.619-6.442,3.082-9.449c2.643-5.429,6.357-10.045,10.75-14.14c6.943-6.471,15.01-11.078,23.904-14.275
		c6.012-2.161,12.202-3.533,18.589-3.955c0.397-0.026,0.792-0.088,1.188-0.133c2.041,0,4.083,0,6.125,0
		c0.056,0.025,0.109,0.068,0.167,0.074c1.637,0.167,3.281,0.275,4.909,0.504c4.533,0.638,8.888,1.894,13.017,3.9
		c3.358,1.632,6.429,3.704,8.976,6.424c5.906,6.307,7.81,13.829,6.379,22.255c-0.689,4.059-2.207,7.83-4.256,11.389
		c-3.372,5.857-7.871,10.736-13.137,14.919c-7.271,5.777-15.44,9.831-24.335,12.438c-4.763,1.395-9.623,2.278-14.58,2.598
		C41.755,87.292,41.264,87.354,40.771,87.403z M70.114,50.281l0.004,0.013c0.003-0.18-0.02-0.364,0.012-0.539
		c0.226-1.257,0.463-2.512,0.696-3.768c0.886-4.769,1.772-9.538,2.656-14.307c0.625-3.367,1.249-6.733,1.865-10.101
		c0.126-0.691-0.072-0.957-0.757-0.902c-1.681,0.134-3.356,0.316-5.033,0.489c-0.424,0.043-0.687,0.303-0.794,0.714
		c-0.055,0.209-0.105,0.421-0.145,0.634c-0.639,3.474-1.275,6.949-1.913,10.424c-0.859,4.69-1.721,9.381-2.58,14.072
		c-0.803,4.384-1.605,8.768-2.404,13.151c-0.324,1.778-0.647,3.556-0.953,5.337c-0.088,0.514,0.027,0.609,0.554,0.527
		c1.746-0.271,3.488-0.565,5.236-0.819c0.469-0.068,0.686-0.278,0.771-0.733c0.668-3.537,1.351-7.072,2.028-10.608
		c0.118-0.612,0.238-1.225,0.358-1.838c0.123,0.125,0.172,0.247,0.216,0.372c1.279,3.62,2.558,7.242,3.839,10.862
		c0.226,0.639,0.331,0.716,0.984,0.612c1.569-0.25,3.139-0.511,4.705-0.781c0.746-0.128,0.786-0.214,0.532-0.947
		c-1.306-3.77-2.608-7.541-3.925-11.307c-0.104-0.3-0.078-0.524,0.086-0.792c1.569-2.56,3.127-5.127,4.685-7.694
		c0.889-1.463,1.774-2.928,2.648-4.4c0.088-0.147,0.136-0.362,0.099-0.522c-0.018-0.079-0.276-0.159-0.417-0.145
		c-1.692,0.161-3.383,0.344-5.075,0.51c-0.51,0.05-0.839,0.315-1.09,0.746C74.711,42.458,72.412,46.369,70.114,50.281z
		 M34.882,62.493c0,0.175-0.002,0.322,0,0.469c0.027,2.096,0.056,4.191,0.085,6.287c0.007,0.527,0.111,0.644,0.629,0.592
		c0.554-0.055,1.104-0.152,1.654-0.239c1.194-0.188,2.39-0.374,3.582-0.576c0.713-0.12,0.859-0.322,0.829-1.05
		c-0.005-0.109-0.016-0.218-0.024-0.326c-0.098-1.274-0.197-2.55-0.293-3.824c-0.202-2.673-0.401-5.345-0.604-8.017
		c-0.234-3.079-0.47-6.158-0.705-9.237c-0.2-2.631-0.398-5.263-0.602-7.894c-0.232-3.024-0.468-6.049-0.706-9.073
		c-0.07-0.895-0.124-1.792-0.245-2.68c-0.084-0.61-0.577-0.782-1.038-0.373c-0.245,0.217-0.439,0.518-0.588,0.815
		C31.326,38.472,25.803,49.581,20.28,60.69c-1.915,3.853-3.827,7.707-5.729,11.566c-0.101,0.203-0.18,0.495-0.104,0.679
		c0.046,0.113,0.412,0.164,0.619,0.134c2.165-0.316,4.324-0.67,6.49-0.978c0.531-0.076,0.801-0.332,1.001-0.806
		c1.002-2.36,2.033-4.709,3.044-7.066c0.103-0.24,0.231-0.347,0.494-0.386c1.681-0.244,3.359-0.51,5.038-0.768
		C32.367,62.877,33.602,62.688,34.882,62.493z M44.974,60.968c-0.124,0.428-0.229,0.779-0.328,1.132
		c-0.38,1.345-0.771,2.688-1.133,4.038c-0.164,0.615-0.018,0.918,0.558,1.188c0.402,0.19,0.825,0.352,1.255,0.471
		c1.84,0.512,3.706,0.459,5.586,0.255c2.311-0.251,4.326-1.106,5.989-2.75c2.399-2.372,3.378-5.21,2.727-8.542
		c-0.366-1.87-1.423-3.348-2.815-4.618c-1.054-0.963-2.096-1.943-3.081-2.975c-0.38-0.397-0.709-0.926-0.851-1.452
		c-0.313-1.155,0.126-2.159,0.989-2.93c0.807-0.721,1.799-0.779,2.756-0.376c0.817,0.344,1.573,0.835,2.368,1.267
		c0.021-0.053,0.065-0.151,0.102-0.251c0.447-1.267,0.896-2.533,1.338-3.801c0.286-0.824,0.169-1.052-0.648-1.34
		c-2.529-0.891-5.071-0.866-7.604-0.044c-2.413,0.783-4.249,2.261-5.146,4.687c-0.913,2.465-0.95,4.919,0.45,7.259
		c0.722,1.205,1.729,2.158,2.754,3.1c1.08,0.993,2.01,2.106,2.489,3.526c0.639,1.891-0.142,3.461-2.01,4.063
		c-0.739,0.238-1.499,0.267-2.26,0.15C47.049,62.81,45.846,62.222,44.974,60.968z"/>
	<path fill-rule="evenodd" clip-rule="evenodd" fill="#CE0202" d="M34.84,56.936c-2.163,0.331-4.357,0.668-6.63,1.017
		c2.198-5.058,4.367-10.044,6.535-15.031c0.031,0.006,0.063,0.012,0.095,0.018C34.84,47.592,34.84,52.245,34.84,56.936z"/>
</g>
</svg>
