<?xml version="1.0" encoding="utf-8"?>
<!-- Generator: Adobe Illustrator 16.0.0, SVG Export Plug-In . SVG Version: 6.00 Build 0)  -->
<!DOCTYPE svg PUBLIC "-//W3C//DTD SVG 1.1//EN" "http://www.w3.org/Graphics/SVG/1.1/DTD/svg11.dtd">
<svg version="1.1" id="圖層_1" xmlns="http://www.w3.org/2000/svg" xmlns:xlink="http://www.w3.org/1999/xlink" x="0px" y="0px"
	 width="100px" height="100px" viewBox="0 0 100 100" enable-background="new 0 0 100 100" xml:space="preserve">
<g>
	<path fill-rule="evenodd" clip-rule="evenodd" fill="#DF5E3A" d="M50.069,1.603C76.816,1.624,98.502,23.279,98.5,49.965
		c-0.004,26.78-21.827,48.476-48.713,48.431C23.18,98.351,1.393,76.438,1.5,49.829C1.61,23.092,23.272,1.584,50.069,1.603z
		 M50.205,5.587c-24.854-0.046-44.571,19.49-44.72,44.31C5.341,74.289,25.307,94.353,49.787,94.412
		c24.698,0.061,44.688-19.778,44.719-44.388C94.537,25.471,74.761,5.632,50.205,5.587z"/>
	<path fill-rule="evenodd" clip-rule="evenodd" fill="#DD5934" d="M53.19,76.746c-1.959-5.024-3.383-10.142-2.619-15.624
		c2.929,1.1,5.788,2.491,8.806,3.231c5.944,1.464,11.898,1.707,17.317-1.919c0.811-0.542,1.363-1.465,2.035-2.211
		c-0.151-0.265-0.299-0.528-0.448-0.793c-1.663,0.143-3.341,0.184-4.987,0.448c-4.579,0.73-9.117,2.208-13.797,0.775
		c-1.887-0.574-4.45-1.108-4.092-3.58c0.376-2.585,3.019-2.205,4.939-2.03c7.96,0.732,14.56-2.861,21.128-6.509
		c1.798-0.998,1.252-2.441-0.371-2.828c-1.769-0.421-3.773-0.476-5.554-0.104c-3.893,0.815-7.707,1.999-11.557,3.033
		c0.833-5.452-0.203-10.595-2.612-15.494c-0.502-1.017-0.982-2.184-1.809-2.88c-7.525-6.332-15.035-12.764-25.685-12.854
		c-1.035-0.008-2.071,0.16-3.846,0.307c1.116,0.74,1.694,1.124,2.229,1.479c-1.12,0.839-2.276,1.709-3.436,2.579
		c0.076,0.211,0.153,0.419,0.23,0.63c3.754,0.278,7.511,0.557,11.264,0.836c-4.172,1.591-8.373,2.583-11.027,6.425
		c-0.237,0.366-0.475,0.73-0.713,1.096l0.177,0.089c0,0-0.178-0.083-0.178-0.081c-0.199,0.373-0.396,0.745-0.594,1.119
		c0,0,0.006,0.024,0.007,0.025c-2.107,3.072-1.773,6.551-1.32,9.896c0.826,6.108,1.817,12.204,3.022,18.247
		c1.892,9.488,4.017,18.927,6.042,28.387C17.13,81.822,5.767,61.974,9.481,42.555C13.306,22.553,30.66,8.424,50.851,8.877
		C71.809,9.344,88.552,24.791,91.01,45.921c2.256,19.403-10.947,38.457-30.292,43.706c-0.265,0.073-0.549,0.075-1.034,0.136
		c-0.939-1.579-1.903-3.2-2.867-4.818l0.016-0.238c0.792-0.203,1.651-0.711,2.37-0.559c1.755,0.372,3.437,1.093,5.163,1.599
		c1.929,0.566,3.225,0.007,3.256-2.198c0.031-2.276,0.151-4.586-0.128-6.832c-0.504-4.063-1.298-4.354-4.877-2.165
		c-1.133,0.689-2.208,1.48-3.349,2.16c-0.535,0.319-1.175,0.704-1.744,0.669C56.071,77.286,54.634,76.972,53.19,76.746z"/>
	<path fill-rule="evenodd" clip-rule="evenodd" fill="#FCD00C" d="M63.992,48.637c3.85-1.034,7.664-2.218,11.557-3.033
		c1.78-0.372,3.785-0.318,5.554,0.104c1.623,0.387,2.169,1.831,0.371,2.828c-6.568,3.647-13.168,7.241-21.128,6.509
		c-1.921-0.175-4.563-0.555-4.939,2.03c-0.358,2.472,2.205,3.006,4.092,3.58c4.68,1.433,9.218-0.045,13.797-0.775
		c1.646-0.265,3.324-0.306,4.987-0.448c0.149,0.265,0.297,0.528,0.448,0.793c-0.672,0.746-1.225,1.669-2.035,2.211
		c-5.419,3.626-11.373,3.383-17.317,1.919c-3.019-0.74-5.877-2.132-8.806-3.231c-4.26-4.4-3.315-8.602,2.623-10.518
		c2.563-0.828,5.379-0.865,8.076-1.305C62.188,49.148,63.086,48.86,63.992,48.637z"/>
	<path fill-rule="evenodd" clip-rule="evenodd" fill="#69BC48" d="M53.19,76.746c1.443,0.226,2.881,0.54,4.333,0.634
		c0.569,0.035,1.209-0.35,1.744-0.669c1.141-0.68,2.216-1.471,3.349-2.16c3.579-2.188,4.373-1.898,4.877,2.165
		c0.279,2.246,0.159,4.556,0.128,6.832c-0.031,2.205-1.327,2.765-3.256,2.198c-1.727-0.506-3.408-1.227-5.163-1.599
		c-0.719-0.152-1.578,0.355-2.37,0.559c-0.506-0.052-1.027-0.214-1.514-0.141c-4.168,0.623-4.577,0.306-4.818-3.795
		c-0.028-0.489-0.208-0.973-0.322-1.46c-0.262,0.008-0.524,0.015-0.788,0.023c0,2.096,0,4.19,0,6.285
		c-2.258,1.119-4.518,2.241-7.093,3.521c-1.794-4.931-1.506-9.479-1.399-14.78c2.694,0.931,4.987,1.466,7.029,2.498
		C49.832,77.823,51.46,77.938,53.19,76.746z"/>
	<path fill-rule="evenodd" clip-rule="evenodd" fill="#D6D3D2" d="M35.744,88.44c-2.025-9.46-4.151-18.898-6.042-28.387
		c-1.206-6.043-2.196-12.139-3.022-18.247c-0.453-3.345-0.788-6.823,1.32-9.896c0.17,19.453,6.386,37.859,9.837,57.013
		C37.09,88.752,36.417,88.593,35.744,88.44z"/>
	<path fill-rule="evenodd" clip-rule="evenodd" fill="#395993" d="M41.862,44.079c-1.181,0.771-2.289,2.005-3.558,2.202
		c-1.856,0.288-2.997-1.159-2.977-2.983c0.02-1.851,1.286-3.216,3.077-2.914c1.259,0.214,2.333,1.52,3.49,2.338
		C41.884,43.174,41.873,43.626,41.862,44.079z"/>
	<path fill-rule="evenodd" clip-rule="evenodd" fill="#395993" d="M58.853,37.706c1.348,1.769,2.773,2.832,2.687,3.746
		c-0.097,0.96-1.551,2.314-2.581,2.48c-0.725,0.119-2.377-1.416-2.434-2.287C56.463,40.637,57.691,39.545,58.853,37.706z"/>
	<path fill-rule="evenodd" clip-rule="evenodd" fill="#55AD52" d="M49.391,85.619c0-2.095,0-4.189,0-6.285
		c0.264-0.009,0.526-0.016,0.788-0.023c0.113,0.487,0.294,0.971,0.322,1.46c0.241,4.101,0.65,4.418,4.818,3.795
		c0.486-0.073,1.008,0.089,1.514,0.141l-0.016,0.238C54.341,85.171,51.865,85.393,49.391,85.619z"/>
</g>
<g>
	<path fill-rule="evenodd" clip-rule="evenodd" fill="#CD0000" d="M190.771,87.403c-1.824,0-3.647,0-5.472,0
		c-0.069-0.026-0.136-0.071-0.207-0.077c-1.246-0.111-2.496-0.191-3.738-0.331c-3.934-0.44-7.758-1.348-11.446-2.792
		c-4.679-1.832-8.896-4.379-12.309-8.124c-3.451-3.788-5.637-8.188-6.287-13.306c-0.067-0.53-0.153-1.057-0.23-1.585
		c0-1.226,0-2.45,0-3.676c0.027-0.097,0.067-0.193,0.08-0.292c0.104-0.837,0.177-1.678,0.308-2.509
		c0.521-3.313,1.619-6.442,3.082-9.449c2.643-5.429,6.357-10.045,10.75-14.14c6.943-6.471,15.01-11.078,23.904-14.275
		c6.012-2.161,12.202-3.533,18.589-3.955c0.397-0.026,0.792-0.088,1.188-0.133c2.041,0,4.083,0,6.125,0
		c0.056,0.025,0.109,0.068,0.167,0.074c1.637,0.167,3.281,0.275,4.909,0.504c4.533,0.638,8.888,1.894,13.017,3.9
		c3.358,1.632,6.429,3.704,8.976,6.424c5.906,6.307,7.81,13.829,6.379,22.255c-0.689,4.059-2.207,7.83-4.256,11.389
		c-3.372,5.857-7.871,10.736-13.137,14.919c-7.271,5.777-15.44,9.831-24.335,12.438c-4.763,1.395-9.623,2.278-14.58,2.598
		C191.755,87.292,191.264,87.354,190.771,87.403z M220.114,50.281l0.004,0.013c0.003-0.18-0.02-0.364,0.012-0.539
		c0.226-1.257,0.463-2.512,0.696-3.768c0.886-4.769,1.772-9.538,2.656-14.307c0.625-3.367,1.249-6.733,1.865-10.101
		c0.126-0.691-0.072-0.957-0.757-0.902c-1.681,0.134-3.356,0.316-5.033,0.489c-0.424,0.043-0.687,0.303-0.794,0.714
		c-0.055,0.209-0.105,0.421-0.145,0.634c-0.639,3.474-1.275,6.949-1.913,10.424c-0.859,4.69-1.721,9.381-2.58,14.072
		c-0.803,4.384-1.605,8.768-2.404,13.151c-0.324,1.778-0.647,3.556-0.953,5.337c-0.088,0.514,0.027,0.609,0.554,0.527
		c1.746-0.271,3.488-0.565,5.236-0.819c0.469-0.068,0.686-0.278,0.771-0.733c0.668-3.537,1.351-7.072,2.028-10.608
		c0.118-0.612,0.238-1.225,0.358-1.838c0.123,0.125,0.172,0.247,0.216,0.372c1.279,3.62,2.558,7.242,3.839,10.862
		c0.226,0.639,0.331,0.716,0.984,0.612c1.569-0.25,3.139-0.511,4.705-0.781c0.746-0.128,0.786-0.214,0.532-0.947
		c-1.306-3.77-2.608-7.541-3.925-11.307c-0.104-0.3-0.078-0.524,0.086-0.792c1.569-2.56,3.127-5.127,4.685-7.694
		c0.889-1.463,1.774-2.928,2.648-4.4c0.088-0.147,0.136-0.362,0.099-0.522c-0.018-0.079-0.276-0.159-0.417-0.145
		c-1.692,0.161-3.383,0.344-5.075,0.51c-0.51,0.05-0.839,0.315-1.09,0.746C224.711,42.458,222.412,46.369,220.114,50.281z
		 M184.882,62.493c0,0.175-0.002,0.322,0,0.469c0.027,2.096,0.056,4.191,0.085,6.287c0.007,0.527,0.111,0.644,0.629,0.592
		c0.554-0.055,1.104-0.152,1.654-0.239c1.194-0.188,2.39-0.374,3.582-0.576c0.713-0.12,0.859-0.322,0.829-1.05
		c-0.005-0.109-0.016-0.218-0.024-0.326c-0.098-1.274-0.197-2.55-0.293-3.824c-0.202-2.673-0.401-5.345-0.604-8.017
		c-0.234-3.079-0.47-6.158-0.705-9.237c-0.2-2.631-0.398-5.263-0.602-7.894c-0.232-3.024-0.468-6.049-0.706-9.073
		c-0.07-0.895-0.124-1.792-0.245-2.68c-0.084-0.61-0.577-0.782-1.038-0.373c-0.245,0.217-0.439,0.518-0.588,0.815
		c-5.53,11.105-11.054,22.214-16.576,33.324c-1.915,3.853-3.827,7.707-5.729,11.566c-0.101,0.203-0.18,0.495-0.104,0.679
		c0.046,0.113,0.412,0.164,0.619,0.134c2.165-0.316,4.324-0.67,6.49-0.978c0.531-0.076,0.801-0.332,1.001-0.806
		c1.002-2.36,2.033-4.709,3.044-7.066c0.103-0.24,0.231-0.347,0.494-0.386c1.681-0.244,3.359-0.51,5.038-0.768
		C182.367,62.877,183.602,62.688,184.882,62.493z M194.974,60.968c-0.124,0.428-0.229,0.779-0.328,1.132
		c-0.38,1.345-0.771,2.688-1.133,4.038c-0.164,0.615-0.018,0.918,0.558,1.188c0.402,0.19,0.825,0.352,1.255,0.471
		c1.84,0.512,3.706,0.459,5.586,0.255c2.311-0.251,4.326-1.106,5.989-2.75c2.399-2.372,3.378-5.21,2.727-8.542
		c-0.366-1.87-1.423-3.348-2.815-4.618c-1.054-0.963-2.096-1.943-3.081-2.975c-0.38-0.397-0.709-0.926-0.851-1.452
		c-0.313-1.155,0.126-2.159,0.989-2.93c0.807-0.721,1.799-0.779,2.756-0.376c0.817,0.344,1.573,0.835,2.368,1.267
		c0.021-0.053,0.065-0.151,0.102-0.251c0.447-1.267,0.896-2.533,1.338-3.801c0.286-0.824,0.169-1.052-0.648-1.34
		c-2.529-0.891-5.071-0.866-7.604-0.044c-2.413,0.783-4.249,2.261-5.146,4.687c-0.913,2.465-0.95,4.919,0.45,7.259
		c0.722,1.205,1.729,2.158,2.754,3.1c1.08,0.993,2.01,2.106,2.489,3.526c0.639,1.891-0.142,3.461-2.01,4.063
		c-0.739,0.238-1.499,0.267-2.26,0.15C197.049,62.81,195.846,62.222,194.974,60.968z"/>
	<path fill-rule="evenodd" clip-rule="evenodd" fill="#CE0202" d="M184.84,56.936c-2.163,0.331-4.357,0.668-6.63,1.017
		c2.198-5.058,4.367-10.044,6.535-15.031c0.031,0.006,0.063,0.012,0.095,0.018C184.84,47.592,184.84,52.245,184.84,56.936z"/>
</g>
<g>
	<path fill-rule="evenodd" clip-rule="evenodd" fill="#2D34DE" d="M29.833,246.862c-3.381-0.401-6.76-0.235-9.839-1.947
		c-4.96-2.757-7.25-7.27-8.023-12.61c-1.118-7.714,2.805-13.086,8.48-17.644c3.275-2.63,6.5-5.358,9.468-8.319
		c2.228-2.223,4.1-4.825,5.97-7.376c2.179-2.971,4.654-5.711,8.21-6.745c7.076-2.059,12.373-1.004,17.819,5.889
		c2.16,2.734,4.171,5.59,6.36,8.301c0.975,1.209,2.192,2.234,3.352,3.284c3.209,2.904,6.387,5.849,9.687,8.65
		c3.23,2.743,5.166,5.983,5.724,10.311c0.489,3.796-0.257,7.244-1.643,10.601c-2.135,5.176-6.484,7.376-11.769,8.025
		c-4.701,0.575-9.321-0.026-13.842-1.325c-5.872-1.687-11.758-1.806-17.756-0.726C37.998,245.958,33.902,246.331,29.833,246.862z
		 M46.349,238.795c0-10.807,0-21.521,0-32.311c-2.013,0-3.917,0-5.993,0c0,2.888,0,5.7,0,8.641c-2.238,0-4.31-0.06-6.375,0.025
		c-1.044,0.043-2.107,0.25-3.112,0.552c-4.971,1.489-9.271,8.255-7.505,14.423c1.44,5.032,4.745,8.046,9.278,8.56
		C37.134,239.193,41.73,238.795,46.349,238.795z M56.14,215.957c-2.195,0-4.2,0-6.213,0c-0.061,0.236-0.128,0.376-0.128,0.517
		c-0.006,5.384-0.026,10.765,0.018,16.146c0.005,0.68,0.225,1.424,0.554,2.023c1.428,2.609,3.698,3.99,6.651,4.113
		c2.229,0.095,4.466,0.021,6.7,0.022c2.624,0,5.246,0,7.907,0c0-7.702,0-15.234,0-22.745c-2.245,0-4.391,0-6.663,0
		c0,5.743,0,11.356,0,17.072c-2.055,0-3.977,0.037-5.896-0.011c-2.07-0.05-2.927-0.965-2.929-3.016
		C56.138,225.414,56.14,220.75,56.14,215.957z"/>
	<path fill-rule="evenodd" clip-rule="evenodd" fill="#2D34DE" d="M94.146,195.316c-0.379,2.293-0.595,4.626-1.176,6.867
		c-1.058,4.089-4.054,6.155-8.054,6.688c-1.718,0.229-3.54,0.028-5.266-0.266c-4.243-0.718-6.729-3.356-7.465-7.553
		c-0.788-4.506-0.741-9.005,0.744-13.386c0.925-2.729,2.611-4.94,5.472-5.686c1.766-0.462,3.659-0.459,5.572-0.316
		c3.638,0.271,6.013,2.173,7.819,5.049C93.431,189.32,94.09,192.202,94.146,195.316z"/>
	<path fill-rule="evenodd" clip-rule="evenodd" fill="#2D34DE" d="M28.355,189.031c-0.451,2.251-0.662,4.585-1.399,6.738
		c-2.229,6.517-10.007,9.174-15.705,5.308c-3.424-2.322-4.981-6.004-5.311-9.982c-0.465-5.606,0.864-10.811,5.194-14.74
		c2.018-1.832,4.616-2.334,7.328-1.679c4.291,1.038,8.708,5.944,9.318,10.359c0.181,1.305,0.251,2.623,0.372,3.936
		C28.22,188.99,28.289,189.011,28.355,189.031z"/>
	<path fill-rule="evenodd" clip-rule="evenodd" fill="#2D34DE" d="M54.445,171.431c-0.14-4.9,1.394-9.038,4.921-12.363
		c1.161-1.096,2.287-2.269,3.602-3.153c2.056-1.38,4.34-1.426,6.507-0.231c3.883,2.137,6.351,5.293,7.165,9.782
		c1.05,5.785-1.128,10.397-4.983,14.368c-2.948,3.037-6.641,3.825-10.646,2.433c-3.976-1.386-5.739-4.551-6.345-8.508
		C54.543,172.957,54.511,172.143,54.445,171.431z"/>
	<path fill-rule="evenodd" clip-rule="evenodd" fill="#2D34DE" d="M28.073,167.021c-0.096-3.592,0.85-6.909,2.822-9.889
		c3.925-5.93,10.981-6.426,15.215,0.023c1.511,2.302,2.186,4.853,2.53,7.629c0.342,2.763,0,5.324-0.613,7.961
		c-0.795,3.415-2.623,6.063-5.54,7.955c-3.2,2.077-7.476,1.268-10.351-1.905C29.502,175.89,28.062,171.715,28.073,167.021z"/>
	<path fill-rule="evenodd" clip-rule="evenodd" fill="#2D34DE" d="M40.261,220.328c0,4.229,0.016,8.236-0.027,12.242
		c-0.004,0.347-0.421,0.997-0.615,0.987c-2.29-0.138-4.658,0.607-6.86-0.6c-3.625-1.985-4.149-7.665-1.293-10.646
		C34.042,219.623,37.08,220.521,40.261,220.328z"/>
</g>
</svg>
