<svg enable-background="new 0 0 24 24" height="512" viewBox="0 0 24 24" width="512" xmlns="http://www.w3.org/2000/svg"><path d="m6.548 6.599c-3.894 0-3.872-.05-4.441.18-.04.019-.04 0-.02-.02 5.626-5.75 5.868-6.06 5.783-5.891-.224.555-.17.495-.178 4.576-.026.822-.251 1.155-1.144 1.155zm6.492 16.715c-2.547-1.665-1.298-5.465 1.619-5.472.869 0 .932 1.001.888.901 0 .33-.181.617-.45.768l-.004.002c-.292.177-.741.119-.986.338-.495.4-.439 1.072-.04 1.473 1.286 1.297 3.769.199 3.769-1.879 0-.004 0-.008 0-.012v.001c0-1.214-.809-2.289-1.875-2.766-.345-.175-1.092-.277-1.243-.299-.829-.1-2.901-.756-3.04-2.606 0 0-.611 2.785-1.835 3.541-1.274.648-4.574.136-6.453-1.81 0 0-.987-.816-1.5-3.104-.19-.897-.5-2.166-.592-3.324 0-.975.592-1.631 1.342-1.73h4.026c1.287 0 1.757-.592 1.757-1.732v-4.198c.097-.737.75-1.354 1.716-1.354.533.032.677-.088 1.658.16 1.204.298 1.46 1.532 1.46 1.532s2.27.398 3.415.597c1.085.199 3.77.378 4.282 3.104 1.204 6.487.474 12.775.415 12.775-.797 5.753-5.905 6.802-8.342 5.085zm3.138-12.337c-.04.1-.079.219-.059.278.102.307 2.224.446 2.526.399.179 0 .139-.257.139-.359-.131-1.174-2.17-1.413-2.606-.318z" fill="#4caf50"/></svg>