<?xml version="1.0" encoding="utf-8"?>
<!-- Generator: Adobe Illustrator 16.0.0, SVG Export Plug-In . SVG Version: 6.00 Build 0)  -->
<!DOCTYPE svg PUBLIC "-//W3C//DTD SVG 1.1//EN" "http://www.w3.org/Graphics/SVG/1.1/DTD/svg11.dtd">
<svg version="1.1" id="圖層_1" xmlns="http://www.w3.org/2000/svg" xmlns:xlink="http://www.w3.org/1999/xlink" x="0px" y="0px"
	 width="100px" height="100px" viewBox="0 0 100 100" enable-background="new 0 0 100 100" xml:space="preserve">
<g>
	<path fill="#0261B3" d="M50.142,67.661c4.862-2.39,9.029-6.059,12.055-11.022C65.249,51.634,67,46.089,67,40.013V22.466
		c-4,0.723-8.464,2.377-11.985,4.958c-1.771,1.298-3.462,2.768-4.853,4.405c-1.391-1.638-2.802-3.107-4.572-4.405
		C42.07,24.841,38,23.188,34,22.466v17.547c0,6.076,1.298,11.621,4.353,16.626c3.023,4.959,6.856,8.63,11.722,11.022
		c0.018,0.022-0.022,0.045-0.003,0.067c0.012-0.006-0.005-0.014,0.007-0.02c0.013,0.006,0.011,0.014,0.022,0.02
		C50.119,67.706,50.123,67.684,50.142,67.661z"/>
	<path fill="#0261B3" d="M33.53,66.5c-2.354-2.991-3.949-6.224-4.793-9.694c-0.821,3.471-2.406,6.703-4.758,9.694
		s-5.193,5.536-8.521,7.632c4.125,2.268,8.549,3.402,13.278,3.402c4.753,0,9.188-1.135,13.313-3.402
		C38.722,72.036,35.883,69.491,33.53,66.5z"/>
	<path fill="#0261B3" d="M19.495,56.639C22.546,51.634,24,46.089,24,40.013V22.466c-4,0.723-8.167,2.377-11.688,4.958
		c-3.52,2.581-6.253,5.832-8.267,9.75c-2.014,3.92-3.003,8.136-3.003,12.644c0,6.752,2.154,12.725,6.521,17.911
		C12.484,65.341,16.442,61.646,19.495,56.639z"/>
	<path fill="#0261B3" d="M96.019,37.174c-2.014-3.919-4.762-7.169-8.28-9.75C84.22,24.841,81,23.188,76,22.466v17.547
		c0,6.076,1.501,11.621,4.556,16.626c3.051,5.003,7.024,8.699,11.948,11.09c4.367-5.187,6.54-11.159,6.54-17.911
		C99.044,45.31,98.029,41.094,96.019,37.174z"/>
	<path fill="#0261B3" d="M75.938,66.5c-2.354-2.991-3.95-6.224-4.793-9.694c-0.821,3.471-2.407,6.703-4.758,9.694
		c-2.352,2.991-5.194,5.536-8.521,7.632c4.125,2.268,8.549,3.402,13.278,3.402c4.753,0,9.188-1.135,13.313-3.402
		C81.129,72.036,78.29,69.491,75.938,66.5z"/>
</g>
<g>
	<path fill-rule="evenodd" clip-rule="evenodd" fill="#DF5E3A" d="M-249.931-298.397c26.748,0.021,48.433,21.676,48.431,48.362
		c-0.004,26.78-21.827,48.476-48.713,48.431c-26.607-0.046-48.394-21.958-48.287-48.567
		C-298.39-276.908-276.728-298.416-249.931-298.397z M-249.795-294.413c-24.854-0.046-44.571,19.49-44.72,44.31
		c-0.144,24.392,19.822,44.455,44.302,44.515c24.698,0.061,44.688-19.778,44.719-44.388
		C-205.463-274.529-225.239-294.368-249.795-294.413z"/>
	<path fill-rule="evenodd" clip-rule="evenodd" fill="#DD5934" d="M-246.81-223.254c-1.959-5.024-3.383-10.142-2.619-15.624
		c2.929,1.1,5.788,2.491,8.806,3.231c5.944,1.464,11.898,1.707,17.317-1.919c0.811-0.542,1.363-1.465,2.035-2.211
		c-0.151-0.265-0.299-0.528-0.448-0.793c-1.663,0.143-3.341,0.184-4.987,0.448c-4.579,0.73-9.117,2.208-13.797,0.775
		c-1.887-0.574-4.45-1.108-4.092-3.58c0.376-2.585,3.019-2.205,4.939-2.03c7.96,0.732,14.56-2.861,21.128-6.509
		c1.798-0.998,1.252-2.441-0.371-2.828c-1.769-0.421-3.773-0.476-5.554-0.104c-3.893,0.815-7.707,1.999-11.557,3.033
		c0.833-5.452-0.203-10.595-2.612-15.494c-0.502-1.017-0.982-2.184-1.809-2.88c-7.525-6.332-15.035-12.764-25.685-12.854
		c-1.035-0.008-2.071,0.16-3.846,0.307c1.116,0.74,1.694,1.124,2.229,1.479c-1.12,0.839-2.276,1.709-3.436,2.579
		c0.076,0.211,0.153,0.419,0.23,0.63c3.754,0.278,7.511,0.557,11.264,0.836c-4.172,1.591-8.373,2.583-11.027,6.425
		c-0.237,0.366-0.475,0.73-0.713,1.096l0.177,0.089c0,0-0.178-0.083-0.178-0.081c-0.199,0.373-0.396,0.745-0.594,1.119
		c0,0,0.006,0.024,0.007,0.025c-2.107,3.072-1.773,6.551-1.32,9.896c0.826,6.108,1.817,12.204,3.022,18.247
		c1.892,9.488,4.017,18.927,6.042,28.387c-18.614-6.618-29.978-26.467-26.263-45.886c3.825-20.002,21.178-34.13,41.369-33.678
		c20.958,0.467,37.701,15.914,40.159,37.044c2.256,19.403-10.947,38.457-30.292,43.706c-0.265,0.073-0.549,0.075-1.034,0.136
		c-0.939-1.579-1.903-3.2-2.867-4.818l0.016-0.238c0.792-0.203,1.651-0.711,2.37-0.559c1.755,0.372,3.437,1.093,5.163,1.599
		c1.929,0.566,3.225,0.007,3.256-2.198c0.031-2.276,0.151-4.586-0.128-6.832c-0.504-4.063-1.298-4.354-4.877-2.165
		c-1.133,0.689-2.208,1.48-3.349,2.16c-0.535,0.319-1.175,0.704-1.744,0.669C-243.929-222.714-245.366-223.028-246.81-223.254z"/>
	<path fill-rule="evenodd" clip-rule="evenodd" fill="#FCD00C" d="M-236.008-251.363c3.85-1.034,7.664-2.218,11.557-3.033
		c1.78-0.372,3.785-0.318,5.554,0.104c1.623,0.387,2.169,1.831,0.371,2.828c-6.568,3.647-13.168,7.241-21.128,6.509
		c-1.921-0.175-4.563-0.555-4.939,2.03c-0.358,2.472,2.205,3.006,4.092,3.58c4.68,1.433,9.218-0.045,13.797-0.775
		c1.646-0.265,3.324-0.306,4.987-0.448c0.149,0.265,0.297,0.528,0.448,0.793c-0.672,0.746-1.225,1.669-2.035,2.211
		c-5.419,3.626-11.373,3.383-17.317,1.919c-3.019-0.74-5.877-2.132-8.806-3.231c-4.26-4.4-3.315-8.602,2.623-10.518
		c2.563-0.828,5.379-0.865,8.076-1.305C-237.812-250.852-236.914-251.14-236.008-251.363z"/>
	<path fill-rule="evenodd" clip-rule="evenodd" fill="#69BC48" d="M-246.81-223.254c1.443,0.226,2.881,0.54,4.333,0.634
		c0.569,0.035,1.209-0.35,1.744-0.669c1.141-0.68,2.216-1.471,3.349-2.16c3.579-2.188,4.373-1.898,4.877,2.165
		c0.279,2.246,0.159,4.556,0.128,6.832c-0.031,2.205-1.327,2.765-3.256,2.198c-1.727-0.506-3.408-1.227-5.163-1.599
		c-0.719-0.152-1.578,0.355-2.37,0.559c-0.506-0.052-1.027-0.214-1.514-0.141c-4.168,0.623-4.577,0.306-4.818-3.795
		c-0.028-0.489-0.208-0.973-0.322-1.46c-0.262,0.008-0.524,0.015-0.788,0.023c0,2.096,0,4.19,0,6.285
		c-2.258,1.119-4.518,2.241-7.093,3.521c-1.794-4.931-1.506-9.479-1.399-14.78c2.694,0.931,4.987,1.466,7.029,2.498
		C-250.168-222.177-248.54-222.063-246.81-223.254z"/>
	<path fill-rule="evenodd" clip-rule="evenodd" fill="#D6D3D2" d="M-264.256-211.56c-2.025-9.46-4.151-18.898-6.042-28.387
		c-1.206-6.043-2.196-12.139-3.022-18.247c-0.453-3.345-0.788-6.823,1.32-9.896c0.17,19.453,6.386,37.859,9.837,57.013
		C-262.91-211.248-263.583-211.407-264.256-211.56z"/>
	<path fill-rule="evenodd" clip-rule="evenodd" fill="#395993" d="M-258.138-255.921c-1.181,0.771-2.289,2.005-3.558,2.202
		c-1.856,0.288-2.997-1.159-2.977-2.983c0.02-1.851,1.286-3.216,3.077-2.914c1.259,0.214,2.333,1.52,3.49,2.338
		C-258.116-256.826-258.127-256.374-258.138-255.921z"/>
	<path fill-rule="evenodd" clip-rule="evenodd" fill="#395993" d="M-241.147-262.294c1.348,1.769,2.773,2.832,2.687,3.746
		c-0.097,0.96-1.551,2.314-2.581,2.48c-0.725,0.119-2.377-1.416-2.434-2.287C-243.537-259.363-242.309-260.455-241.147-262.294z"/>
	<path fill-rule="evenodd" clip-rule="evenodd" fill="#55AD52" d="M-250.609-214.381c0-2.095,0-4.189,0-6.285
		c0.264-0.009,0.526-0.016,0.788-0.023c0.113,0.487,0.294,0.971,0.322,1.46c0.241,4.101,0.65,4.418,4.818,3.795
		c0.486-0.073,1.008,0.089,1.514,0.141l-0.016,0.238C-245.659-214.829-248.135-214.607-250.609-214.381z"/>
</g>
<g>
	<path fill-rule="evenodd" clip-rule="evenodd" fill="#CD0000" d="M-109.229-212.597c-1.824,0-3.647,0-5.472,0
		c-0.069-0.026-0.136-0.071-0.207-0.077c-1.246-0.111-2.496-0.191-3.738-0.331c-3.934-0.44-7.758-1.348-11.446-2.792
		c-4.679-1.832-8.896-4.379-12.309-8.124c-3.451-3.788-5.637-8.188-6.287-13.306c-0.067-0.53-0.153-1.057-0.23-1.585
		c0-1.226,0-2.45,0-3.676c0.027-0.097,0.067-0.193,0.08-0.292c0.104-0.837,0.177-1.678,0.308-2.509
		c0.521-3.313,1.619-6.442,3.082-9.449c2.643-5.429,6.357-10.045,10.75-14.14c6.943-6.471,15.01-11.078,23.904-14.275
		c6.012-2.161,12.202-3.533,18.589-3.955c0.397-0.026,0.792-0.088,1.188-0.133c2.041,0,4.083,0,6.125,0
		c0.056,0.025,0.109,0.068,0.167,0.074c1.637,0.167,3.281,0.275,4.909,0.504c4.533,0.638,8.888,1.894,13.017,3.9
		c3.358,1.632,6.429,3.704,8.976,6.424c5.906,6.307,7.81,13.829,6.379,22.255c-0.689,4.059-2.207,7.83-4.256,11.389
		c-3.372,5.857-7.871,10.736-13.137,14.919c-7.271,5.777-15.44,9.831-24.335,12.438c-4.763,1.395-9.623,2.278-14.58,2.598
		C-108.245-212.708-108.736-212.646-109.229-212.597z M-79.886-249.719l0.004,0.013c0.003-0.18-0.02-0.364,0.012-0.539
		c0.226-1.257,0.463-2.512,0.696-3.768c0.886-4.769,1.772-9.538,2.656-14.307c0.625-3.367,1.249-6.733,1.865-10.101
		c0.126-0.691-0.072-0.957-0.757-0.902c-1.681,0.134-3.356,0.316-5.033,0.489c-0.424,0.043-0.687,0.303-0.794,0.714
		c-0.055,0.209-0.105,0.421-0.145,0.634c-0.639,3.474-1.275,6.949-1.913,10.424c-0.859,4.69-1.721,9.381-2.58,14.072
		c-0.803,4.384-1.605,8.768-2.404,13.151c-0.324,1.778-0.647,3.556-0.953,5.337c-0.088,0.514,0.027,0.609,0.554,0.527
		c1.746-0.271,3.488-0.565,5.236-0.819c0.469-0.068,0.686-0.278,0.771-0.733c0.668-3.537,1.351-7.072,2.028-10.608
		c0.118-0.612,0.238-1.225,0.358-1.838c0.123,0.125,0.172,0.247,0.216,0.372c1.279,3.62,2.558,7.242,3.839,10.862
		c0.226,0.639,0.331,0.716,0.984,0.612c1.569-0.25,3.139-0.511,4.705-0.781c0.746-0.128,0.786-0.214,0.532-0.947
		c-1.306-3.77-2.608-7.541-3.925-11.307c-0.104-0.3-0.078-0.524,0.086-0.792c1.569-2.56,3.127-5.127,4.685-7.694
		c0.889-1.463,1.774-2.928,2.648-4.4c0.088-0.147,0.136-0.362,0.099-0.522c-0.018-0.079-0.276-0.159-0.417-0.145
		c-1.692,0.161-3.383,0.344-5.075,0.51c-0.51,0.05-0.839,0.315-1.09,0.746C-75.289-257.542-77.588-253.631-79.886-249.719z
		 M-115.118-237.507c0,0.175-0.002,0.322,0,0.469c0.027,2.096,0.056,4.191,0.085,6.287c0.007,0.527,0.111,0.644,0.629,0.592
		c0.554-0.055,1.104-0.152,1.654-0.239c1.194-0.188,2.39-0.374,3.582-0.576c0.713-0.12,0.859-0.322,0.829-1.05
		c-0.005-0.109-0.016-0.218-0.024-0.326c-0.098-1.274-0.197-2.55-0.293-3.824c-0.202-2.673-0.401-5.345-0.604-8.017
		c-0.234-3.079-0.47-6.158-0.705-9.237c-0.2-2.631-0.398-5.263-0.602-7.894c-0.232-3.024-0.468-6.049-0.706-9.073
		c-0.07-0.895-0.124-1.792-0.245-2.68c-0.084-0.61-0.577-0.782-1.038-0.373c-0.245,0.217-0.439,0.518-0.588,0.815
		c-5.53,11.105-11.054,22.214-16.576,33.324c-1.915,3.853-3.827,7.707-5.729,11.566c-0.101,0.203-0.18,0.495-0.104,0.679
		c0.046,0.113,0.412,0.164,0.619,0.134c2.165-0.316,4.324-0.67,6.49-0.978c0.531-0.076,0.801-0.332,1.001-0.806
		c1.002-2.36,2.033-4.709,3.044-7.066c0.103-0.24,0.231-0.347,0.494-0.386c1.681-0.244,3.359-0.51,5.038-0.768
		C-117.633-237.123-116.398-237.312-115.118-237.507z M-105.026-239.032c-0.124,0.428-0.229,0.779-0.328,1.132
		c-0.38,1.345-0.771,2.688-1.133,4.038c-0.164,0.615-0.018,0.918,0.558,1.188c0.402,0.19,0.825,0.352,1.255,0.471
		c1.84,0.512,3.706,0.459,5.586,0.255c2.311-0.251,4.326-1.106,5.989-2.75c2.399-2.372,3.378-5.21,2.727-8.542
		c-0.366-1.87-1.423-3.348-2.815-4.618c-1.054-0.963-2.096-1.943-3.081-2.975c-0.38-0.397-0.709-0.926-0.851-1.452
		c-0.313-1.155,0.126-2.159,0.989-2.93c0.807-0.721,1.799-0.779,2.756-0.376c0.817,0.344,1.573,0.835,2.368,1.267
		c0.021-0.053,0.065-0.151,0.102-0.251c0.447-1.267,0.896-2.533,1.338-3.801c0.286-0.824,0.169-1.052-0.648-1.34
		c-2.529-0.891-5.071-0.866-7.604-0.044c-2.413,0.783-4.249,2.261-5.146,4.687c-0.913,2.465-0.95,4.919,0.45,7.259
		c0.722,1.205,1.729,2.158,2.754,3.1c1.08,0.993,2.01,2.106,2.489,3.526c0.639,1.891-0.142,3.461-2.01,4.063
		c-0.739,0.238-1.499,0.267-2.26,0.15C-102.951-237.19-104.154-237.778-105.026-239.032z"/>
	<path fill-rule="evenodd" clip-rule="evenodd" fill="#CE0202" d="M-115.16-243.064c-2.163,0.331-4.357,0.668-6.63,1.017
		c2.198-5.058,4.367-10.044,6.535-15.031c0.031,0.006,0.063,0.012,0.095,0.018C-115.16-252.408-115.16-247.755-115.16-243.064z"/>
</g>
<g>
	<path fill-rule="evenodd" clip-rule="evenodd" fill="#2D34DE" d="M-270.167-53.138c-3.381-0.401-6.76-0.235-9.839-1.947
		c-4.96-2.757-7.25-7.27-8.023-12.61c-1.118-7.714,2.805-13.086,8.48-17.644c3.275-2.63,6.5-5.358,9.468-8.319
		c2.228-2.223,4.1-4.825,5.97-7.376c2.179-2.971,4.654-5.711,8.21-6.745c7.076-2.059,12.373-1.004,17.819,5.889
		c2.16,2.734,4.171,5.59,6.36,8.301c0.975,1.209,2.192,2.234,3.352,3.284c3.209,2.904,6.387,5.849,9.687,8.65
		c3.23,2.743,5.166,5.983,5.724,10.311c0.489,3.796-0.257,7.244-1.643,10.601c-2.135,5.176-6.484,7.376-11.769,8.025
		c-4.701,0.575-9.321-0.026-13.842-1.325c-5.872-1.687-11.758-1.806-17.756-0.726C-262.002-54.042-266.098-53.669-270.167-53.138z
		 M-253.651-61.205c0-10.807,0-21.521,0-32.311c-2.013,0-3.917,0-5.993,0c0,2.888,0,5.7,0,8.641c-2.238,0-4.31-0.06-6.375,0.025
		c-1.044,0.043-2.107,0.25-3.112,0.552c-4.971,1.489-9.271,8.255-7.505,14.423c1.44,5.032,4.745,8.046,9.278,8.56
		C-262.866-60.807-258.27-61.205-253.651-61.205z M-243.86-84.043c-2.195,0-4.2,0-6.213,0c-0.061,0.236-0.128,0.376-0.128,0.517
		c-0.006,5.384-0.026,10.765,0.018,16.146c0.005,0.68,0.225,1.424,0.554,2.023c1.428,2.609,3.698,3.99,6.651,4.113
		c2.229,0.095,4.466,0.021,6.7,0.022c2.624,0,5.246,0,7.907,0c0-7.702,0-15.234,0-22.745c-2.245,0-4.391,0-6.663,0
		c0,5.743,0,11.356,0,17.072c-2.055,0-3.977,0.037-5.896-0.011c-2.07-0.05-2.927-0.965-2.929-3.016
		C-243.862-74.586-243.86-79.25-243.86-84.043z"/>
	<path fill-rule="evenodd" clip-rule="evenodd" fill="#2D34DE" d="M-205.854-104.684c-0.379,2.293-0.595,4.626-1.176,6.867
		c-1.058,4.089-4.054,6.155-8.054,6.688c-1.718,0.229-3.54,0.028-5.266-0.266c-4.243-0.718-6.729-3.356-7.465-7.553
		c-0.788-4.506-0.741-9.005,0.744-13.386c0.925-2.729,2.611-4.94,5.472-5.686c1.766-0.462,3.659-0.459,5.572-0.316
		c3.638,0.271,6.013,2.173,7.819,5.049C-206.569-110.68-205.91-107.798-205.854-104.684z"/>
	<path fill-rule="evenodd" clip-rule="evenodd" fill="#2D34DE" d="M-271.645-110.969c-0.451,2.251-0.662,4.585-1.399,6.738
		c-2.229,6.517-10.007,9.174-15.705,5.308c-3.424-2.322-4.981-6.004-5.311-9.982c-0.465-5.606,0.864-10.811,5.194-14.74
		c2.018-1.832,4.616-2.334,7.328-1.679c4.291,1.038,8.708,5.944,9.318,10.359c0.181,1.305,0.251,2.623,0.372,3.936
		C-271.78-111.01-271.711-110.989-271.645-110.969z"/>
	<path fill-rule="evenodd" clip-rule="evenodd" fill="#2D34DE" d="M-245.555-128.569c-0.14-4.9,1.394-9.038,4.921-12.363
		c1.161-1.096,2.287-2.269,3.602-3.153c2.056-1.38,4.34-1.426,6.507-0.231c3.883,2.137,6.351,5.293,7.165,9.782
		c1.05,5.785-1.128,10.397-4.983,14.368c-2.948,3.037-6.641,3.825-10.646,2.433c-3.976-1.386-5.739-4.551-6.345-8.508
		C-245.457-127.043-245.489-127.857-245.555-128.569z"/>
	<path fill-rule="evenodd" clip-rule="evenodd" fill="#2D34DE" d="M-271.927-132.979c-0.096-3.592,0.85-6.909,2.822-9.889
		c3.925-5.93,10.981-6.426,15.215,0.023c1.511,2.302,2.186,4.853,2.53,7.629c0.342,2.763,0,5.324-0.613,7.961
		c-0.795,3.415-2.623,6.063-5.54,7.955c-3.2,2.077-7.476,1.268-10.351-1.905C-270.498-124.11-271.938-128.285-271.927-132.979z"/>
	<path fill-rule="evenodd" clip-rule="evenodd" fill="#2D34DE" d="M-259.739-79.672c0,4.229,0.016,8.236-0.027,12.242
		c-0.004,0.347-0.421,0.997-0.615,0.987c-2.29-0.138-4.658,0.607-6.86-0.6c-3.625-1.985-4.149-7.665-1.293-10.646
		C-265.958-80.377-262.92-79.479-259.739-79.672z"/>
</g>
<g>
	<polygon fill="#F16850" points="-52.5,-84.917 -72.703,-80.62 -70.646,-60.528 -89.567,-68.648 -99.997,-51.22 -110.425,-68.657 
		-129.363,-60.537 -127.298,-80.62 -147.5,-84.932 -133.743,-99.996 -147.492,-115.074 -127.298,-119.371 -129.346,-139.454 
		-110.425,-131.343 -99.997,-148.771 -89.567,-131.343 -70.638,-139.454 -72.694,-119.371 -52.5,-115.06 -66.249,-99.996 	"/>
	<polygon fill="#FD694F" points="-99.997,-118.327 -110.425,-131.352 -129.346,-139.472 -118.083,-124.611 	"/>
	<polygon fill="#FF3413" points="-127.298,-119.371 -147.5,-115.074 -133.743,-100.004 -117.552,-105.876 	"/>
	<polygon fill="#DC1D23" points="-118.083,-124.611 -129.346,-139.472 -127.298,-119.371 -117.552,-105.876 	"/>
	<polygon fill="#FF9281" points="-89.567,-131.352 -99.997,-148.78 -110.425,-131.352 -99.997,-118.327 	"/>
	<polygon fill="#FF8B79" points="-66.249,-99.996 -52.5,-115.074 -72.694,-119.371 -82.44,-105.876 	"/>
	<polygon fill="#FD694F" points="-82.44,-105.876 -72.694,-119.371 -70.638,-139.463 -81.918,-124.611 	"/>
	<polygon fill="#EF5240" points="-81.918,-124.611 -70.638,-139.463 -89.567,-131.352 -99.997,-118.327 	"/>
	<polygon fill="#FF482C" points="-70.74,-91.018 -52.5,-84.926 -66.249,-99.996 -82.44,-105.876 	"/>
	<polygon fill="#EC2101" points="-117.552,-105.876 -133.743,-100.004 -147.5,-84.932 -129.263,-91.018 	"/>
	<polygon fill="#D21C22" points="-99.997,-70.259 -99.997,-51.22 -89.567,-68.657 -89.146,-85.707 	"/>
	<polygon fill="#C90901" points="-70.74,-91.018 -89.146,-85.707 -72.703,-80.62 -52.5,-84.926 	"/>
	<polygon fill="#EC2101" points="-89.567,-68.657 -70.646,-60.537 -72.703,-80.62 -89.146,-85.707 	"/>
	<polygon fill="#B6171E" points="-129.263,-91.018 -147.5,-84.932 -127.298,-80.629 -110.847,-85.707 	"/>
	<polygon fill="#B4151B" points="-110.847,-85.707 -110.425,-68.657 -99.997,-51.22 -99.997,-70.259 	"/>
	<polygon fill="#D21C22" points="-127.298,-80.629 -129.363,-60.546 -110.425,-68.657 -110.847,-85.707 	"/>
	<polygon fill="#E63320" points="-82.44,-105.876 -81.918,-124.611 -99.997,-118.327 -99.997,-100.097 	"/>
	<polygon fill="#FF4527" points="-99.997,-118.327 -118.083,-124.611 -117.552,-105.876 -99.997,-100.097 	"/>
	<polygon fill="#FF9281" points="-110.847,-85.707 -99.997,-70.259 -89.146,-85.707 -99.997,-100.097 	"/>
	<polygon fill="#FD684D" points="-99.997,-100.097 -89.146,-85.707 -70.74,-91.018 -82.44,-105.876 	"/>
	<polygon fill="#FD745C" points="-117.552,-105.876 -129.263,-91.018 -110.847,-85.707 -99.997,-100.097 	"/>
</g>
<g>
	<path fill-rule="evenodd" clip-rule="evenodd" fill="#E42721" d="M76.462-299c-0.003,0.659,0.177,1.384-0.035,1.966
		c-5.674,15.604-11.391,31.192-17.091,46.786c-1.836,5.022-3.652,10.054-5.451,15.091c-0.194,0.544-0.303,1.152-0.305,1.73
		c-0.018,10.269-0.012,20.535-0.014,30.802c0,1.564-0.06,1.623-1.575,1.624c-2.103,0-4.206,0.002-6.308,0
		c-1.338-0.001-1.411-0.071-1.411-1.444c-0.003-10.407,0.004-20.816-0.017-31.223c-0.002-0.608-0.135-1.251-0.352-1.821
		c-6.647-17.443-13.313-34.878-19.979-52.313c-0.12-0.311-0.303-0.597-0.455-0.895c0-0.28,0-0.561,0-0.841
		c0.505-0.239,1.005-0.669,1.518-0.684c2.416-0.073,4.835-0.006,7.254-0.044c1.042-0.017,1.581,0.437,1.917,1.402
		c3.615,10.364,7.244,20.723,10.896,31.074c1.481,4.203,3.031,8.383,4.619,12.762c0.148-0.423,0.24-0.641,0.301-0.867
		c1.04-3.812,1.938-7.669,3.135-11.431c4.298-13.526,8.692-27.022,13.073-40.522c0.139-0.427,0.537-0.771,0.815-1.152
		C70.153-299,73.307-299,76.462-299z"/>
</g>
<path fill-rule="evenodd" clip-rule="evenodd" fill="#05AD10" d="M87.895-148H12.105C6.524-148,2-143.476,2-137.895v75.789
	C2-56.524,6.524-52,12.105-52h75.789C93.476-52,98-56.524,98-62.105v-75.789C98-143.476,93.476-148,87.895-148z M22-128
	c0-0.844,0.675-0.974,1-1h55c0.979,0,1,0.495,1,1v4c0,0.906-0.083,1-1,1H23c-0.66-0.002-1-0.094-1-1V-128z M79-72
	c0,0.703-0.112,1-1,1H22c-0.923,0-1-0.031-1-1v-4c0-0.894,0.058-1,1-1h12.777c-0.935-3.421-2.764-10.414-2.764-10.414
	C32.286-87.875,32.631-87.994,33-88c1.693-0.029,3.657,0.009,5.352,0c1.208-0.007,1.964,0.694,2.405,1.965
	c0.886,2.547,2.062,4.991,2.952,7.536C44.102-77.373,44.931-76.986,46-77h7c0.853,0.008,1.693-0.521,1.99-1.365
	C56.419-82.428,58.44-86,60-91c-0.908,0-22.517,0.008-32,0c-2.325-0.002-1.956-0.033-1.959-2.295
	c-0.009-7.113-0.008-14.185,0.002-21.298c0.003-2.191,0.204-2.391,2.479-2.392c14.431-0.009,28.86,0.008,43.29,0.024
	c1.825,0.002,2.14,0.323,2.144,2.132c0.017,7.385,0.017,14.771-0.003,22.155C73.948-90.965,73.766-91.057,72-91h-4
	c-1.415,4.412-2.771,9.353-4,14h13.874C78.543-77,79-76.563,79-76V-72z"/>
<path fill-rule="evenodd" clip-rule="evenodd" fill="#05AD10" d="M35-98v-11c0-2.039,0-2,2-2h26c2,0,2,0,2,2v11c0,2,0.001,2-2,2
	c0,0-19.459,0-26,0C35-96,35-96,35-98z"/>
<path fill-rule="evenodd" clip-rule="evenodd" fill="#F0B942" d="M-242.177,45.349c0.366,0.164,0.704,0.926,0.368,1.151
	c-10.405,7.007-19.486,13.828-30.256,21.47c17.98,2.55,34.632,1.68,52.123-1.091c-1.593,1.733-3.122,2.664-3.38,3.864
	c-0.319,1.493,0.396,3.209,0.698,4.825c0.981,5.25,2.037,10.485,2.919,15.752c0.188,1.117,0.549,2.794-0.389,3.517
	c-1.013,0.781-2.731,0.01-3.773-0.572c-7.298-4.062-14.58-8.164-21.711-12.507c-3.061-1.863-5.581-1.958-8.718-0.101
	c-7.106,4.209-14.695,7.877-19.75,11.279c-1.198,0.807-4.696,3.831-6.053,3.024c-1.407-0.837-0.226-3.838,0.037-5.3
	c1.497-8.354,3-16.709,4.751-25.01c0.589-2.784-0.045-4.544-2.183-6.407c-6.198-5.394-12.232-10.981-18.207-16.625
	c-1.067-1.011-2.813-2.544-2.292-3.992c0.488-1.354,2.648-1.349,4.035-1.516c7.749-0.94,15.508-1.81,23.282-2.513
	c3.321-0.301,5.383-1.563,6.809-4.795c3.313-7.508,7.003-14.855,10.705-22.186c0.724-1.433,1.665-3.779,3.333-3.714
	c1.556,0.062,2.2,2.315,2.843,3.69c3.476,7.438,6.924,14.896,10.129,22.454c1.34,3.158,3.272,4.554,6.729,4.801
	c8.193,0.582,16.366,1.496,24.533,2.402c1.241,0.137,3.175,0.241,3.604,1.473c0.425,1.22-1.001,2.516-1.894,3.365
	c-5.645,5.391-11.51,10.553-17.064,16.033c-1.943,1.917-4.647,4.039-4.782,6.819c-0.027,0.557,0.538,0.977,0.808,1.465
	c-9.971-0.582-15.956-0.233-29.912-1.75c-0.412-0.045-0.541-0.989-0.201-1.23c14.073-10.003,19.348-13.474,30.046-20.925
	c-16.354-2.557-29.634-2.354-46.48-0.646C-272.963,42.007-250.547,41.59-242.177,45.349z"/>
<g>
	<path fill-rule="evenodd" clip-rule="evenodd" fill="#010101" d="M-129.943,42.324c-0.442-9.482,0.832-18.619,5.771-26.925
		c4.435-7.46,10.971-11.903,19.629-13.06c6.781-0.905,13.284-0.079,19.286,3.419c5.283,3.082,8.895,7.66,11.365,13.162
		c3.344,7.447,4.332,15.313,3.902,23.403c-6.843,1.928-13.816,3.096-20.894,3.726c-7.164,0.638-14.313,0.502-21.446-0.311
		C-118.286,45.059-124.17,43.974-129.943,42.324z M-101.015,31.551c-2.957-0.028-6.94,0.275-10.877,1.05
		c-1.96,0.385-3.927,0.798-5.656,1.868c-0.993,0.615-0.982,1.14-0.044,1.797c0.245,0.172,0.497,0.341,0.761,0.481
		c7.985,4.274,16.322,5.992,25.243,3.452c3.214-0.915,6.325-2.075,9.162-3.876c1.071-0.679,1.081-1.284-0.043-1.891
		c-0.958-0.516-1.992-0.94-3.041-1.227C-90.237,31.914-95.082,31.556-101.015,31.551z M-97.305,21.842
		c-0.014,1.837,0.388,3.563,1.408,5.108c1.946,2.954,5.214,3.043,7.338,0.212c2.165-2.887,2.319-7.816,0.339-10.84
		c-1.971-3.009-5.284-3.112-7.39-0.207C-96.846,17.816-97.329,19.759-97.305,21.842z M-102.624,21.99
		c0.003-2.241-0.464-4.12-1.633-5.777c-2.131-3.021-5.515-2.937-7.502,0.177c-1.91,2.992-1.769,7.806,0.315,10.676
		c2.184,3.008,5.646,2.851,7.562-0.349C-102.969,25.192-102.598,23.526-102.624,21.99z"/>
	<path fill-rule="evenodd" clip-rule="evenodd" fill="#010101" d="M-99.025,97.241c-0.626,0-1.252,0-1.877,0
		c-0.232-0.018-0.463-0.041-0.695-0.054c-4.593-0.211-9.021-1.117-13.218-3.056c-2.37-1.095-4.501-2.55-6.557-4.133
		c-2.344-2.149-4.439-4.503-6.033-7.273c-2.038-3.545-3.286-7.332-3.472-11.66c-0.279,0.397-0.449,0.651-0.63,0.895
		c-1.712,2.334-3.408,4.679-5.149,6.991c-0.374,0.498-0.874,0.915-1.366,1.308c-1.135,0.903-1.653,0.73-1.975-0.703
		c-0.175-0.773-0.259-1.581-0.274-2.375c-0.063-3.798,0.613-7.51,1.676-11.121c1.249-4.233,2.749-8.393,4.146-12.583
		c0.041-0.121,0.136-0.226,0.206-0.338c1.597,0.421,3.188,0.864,4.792,1.258c2.244,0.55,4.496,1.064,6.745,1.596
		c-0.228,2.351-0.558,4.698-0.663,7.056c-0.211,4.739-0.029,9.464,1.312,14.062c1.627,5.59,4.61,10.231,9.668,13.332
		c4.413,2.705,9.268,3.567,14.369,3.193c9.117-0.671,15.528-5.191,19.133-13.604c1.375-3.211,2.007-6.606,2.242-10.083
		c0.318-4.671,0.168-9.321-0.572-13.948c0.738-0.177,1.477-0.344,2.211-0.526c3.107-0.777,6.216-1.556,9.323-2.336
		c1.209,3.407,2.502,6.789,3.604,10.231c1.179,3.679,2.05,7.446,2.319,11.314c0.104,1.483-0.039,2.986-0.089,4.48
		c-0.011,0.259-0.106,0.521-0.194,0.771c-0.346,0.993-0.77,1.158-1.616,0.5c-0.705-0.549-1.407-1.151-1.943-1.856
		c-1.613-2.115-3.146-4.293-4.704-6.448c-0.208-0.288-0.394-0.595-0.593-0.897c-0.351,1.845-0.569,3.682-1.062,5.443
		c-1.354,4.858-3.992,8.961-7.652,12.416c-0.314,0.296-0.618,0.601-0.927,0.903c-2.366,1.847-4.869,3.463-7.654,4.624
		C-90.304,96.335-94.61,97.05-99.025,97.241z"/>
	<path fill-rule="evenodd" clip-rule="evenodd" fill="#E91923" d="M-122.707,55.992c-2.249-0.531-4.501-1.046-6.745-1.596
		c-1.604-0.394-3.195-0.837-4.792-1.258c1.025-2.625,2.045-5.252,3.081-7.875c0.389-0.986,0.813-1.96,1.22-2.939
		c5.773,1.649,11.657,2.734,17.613,3.415c7.134,0.813,14.282,0.948,21.446,0.311c7.077-0.63,14.051-1.798,20.894-3.726
		c1.435,3.605,2.871,7.209,4.306,10.813c-3.107,0.78-6.216,1.559-9.323,2.336c-0.734,0.183-1.473,0.35-2.211,0.526
		c-0.263,0.029-0.529,0.044-0.787,0.095c-7.507,1.428-15.068,2.293-22.724,2.223c-1.616-0.015-3.234-0.003-4.92-0.003
		c0,4.223,0,8.444,0,12.741c-4.473,0.616-8.843,0.346-13.263-0.41c0-4.748,0-9.37,0-14.032
		C-120.219,56.4-121.463,56.195-122.707,55.992z"/>
	<path fill-rule="evenodd" clip-rule="evenodd" fill="#F7A907" d="M-121.372,89.999c2.056,1.583,4.187,3.038,6.557,4.133
		c4.197,1.938,8.625,2.845,13.218,3.056c0.232,0.013,0.463,0.036,0.695,0.054c-0.955,0.104-1.908,0.251-2.867,0.305
		c-6.684,0.363-13.371,0.679-20.064,0.24c-1.555-0.102-3.118-0.303-4.642-0.627c-1.759-0.374-2.191-1.797-0.904-3.08
		c0.809-0.805,1.815-1.477,2.848-1.974C-124.862,91.302-123.098,90.691-121.372,89.999z"/>
	<path fill-rule="evenodd" clip-rule="evenodd" fill="#F7A907" d="M-99.025,97.241c4.415-0.191,8.722-0.906,12.829-2.622
		c2.785-1.161,5.288-2.777,7.654-4.624c1.782,0.726,3.579,1.422,5.341,2.197c0.692,0.305,1.349,0.732,1.945,1.203
		c0.457,0.362,0.886,0.828,1.159,1.337c0.586,1.086,0.222,2.025-0.986,2.294c-1.615,0.359-3.269,0.646-4.918,0.749
		c-7.491,0.474-14.974,0.119-22.449-0.407C-98.644,97.354-98.835,97.284-99.025,97.241z"/>
	<path fill-rule="evenodd" clip-rule="evenodd" fill="#F7A907" d="M-101.015,31.551c5.933,0.005,10.777,0.363,15.505,1.655
		c1.049,0.286,2.083,0.711,3.041,1.227c1.124,0.606,1.114,1.212,0.043,1.891c-2.837,1.801-5.948,2.961-9.162,3.876
		c-8.921,2.54-17.258,0.822-25.243-3.452c-0.264-0.141-0.516-0.31-0.761-0.481c-0.938-0.657-0.949-1.182,0.044-1.797
		c1.729-1.07,3.696-1.483,5.656-1.868C-107.955,31.826-103.972,31.522-101.015,31.551z"/>
	<path fill-rule="evenodd" clip-rule="evenodd" fill="#010101" d="M-88.854,21.372c0.038,1.024-0.604,1.537-1.297,1.187
		c-1.793-0.906-3.382-0.739-4.854,0.661c-0.164,0.156-0.564,0.064-0.854,0.088c-0.022-0.331-0.194-0.814-0.04-0.967
		c0.627-0.62,1.28-1.297,2.062-1.66c1.388-0.642,2.863-0.502,4.263,0.106C-89.254,20.927-89.01,21.241-88.854,21.372z"/>
	<path fill-rule="evenodd" clip-rule="evenodd" fill="#010101" d="M-103.793,22.192c-0.36,0.832-0.569,1.655-1.033,2.295
		c-0.707,0.975-1.925,0.966-2.79,0.13c-1.185-1.145-1.238-3.55-0.105-4.75c0.868-0.919,2.092-0.961,2.861,0.053
		C-104.385,20.548-104.166,21.372-103.793,22.192z"/>
</g>
<path fill="#E73828" d="M50.142,67.661c4.329-5.171,6.489-11.121,6.489-17.844c0-4.508-1.009-8.724-3.02-12.644
	c-1-1.947-2.188-3.728-3.562-5.345c-1.373,1.617-2.561,3.398-3.562,5.345c-2.014,3.92-3.021,8.136-3.021,12.644
	c0,6.723,2.163,12.673,6.493,17.844c0.03,0.015,0.059,0.033,0.09,0.048C50.082,67.694,50.11,67.676,50.142,67.661z"/>
</svg>
