<?xml version="1.0" encoding="iso-8859-1"?>
<!-- Generator: Adobe Illustrator 16.0.0, SVG Export Plug-In . SVG Version: 6.00 Build 0)  -->
<!DOCTYPE svg PUBLIC "-//W3C//DTD SVG 1.1//EN" "http://www.w3.org/Graphics/SVG/1.1/DTD/svg11.dtd">
<svg version="1.1" id="Capa_1" xmlns="http://www.w3.org/2000/svg" xmlns:xlink="http://www.w3.org/1999/xlink" x="0px" y="0px"
	 width="53px" height="53px" viewBox="0 0 53 53" style="enable-background:new 0 0 53 53;" xml:space="preserve">
<g>
	<g>
		<path d="M26,9.027c-10.063,0-18.25,7.514-18.25,16.75c0,4.293,1.746,8.334,4.931,11.45c-1.238,3.232-2.385,4.502-2.878,4.558
			c-0.484,0.054-0.859,0.448-0.888,0.936c-0.028,0.487,0.299,0.923,0.775,1.032c0.039,0.009,0.983,0.223,2.369,0.223
			c2.039,0,4.942-0.451,7.498-2.524c2.063,0.715,4.228,1.077,6.444,1.077c10.063,0,18.25-7.514,18.25-16.75
			C44.251,16.541,36.062,9.027,26,9.027z M16.191,31.025c-1.09,0-2.167-0.283-2.705-0.582l0.439-1.783
			c0.581,0.297,1.473,0.595,2.393,0.595c0.991,0,1.515-0.411,1.515-1.034c0-0.595-0.453-0.935-1.6-1.345
			c-1.586-0.552-2.62-1.43-2.62-2.818c0-1.628,1.359-2.875,3.611-2.875c1.076,0,1.869,0.227,2.436,0.481l-0.481,1.742
			c-0.382-0.184-1.062-0.453-1.997-0.453s-1.388,0.425-1.388,0.92c0,0.609,0.538,0.878,1.77,1.345
			c1.685,0.623,2.478,1.501,2.478,2.847C20.042,29.666,18.811,31.025,16.191,31.025z M29.713,30.883L29.57,27.23
			c-0.041-1.147-0.084-2.536-0.084-3.922h-0.043c-0.297,1.218-0.693,2.577-1.062,3.696l-1.161,3.725h-1.685l-1.02-3.696
			c-0.312-1.119-0.637-2.478-0.864-3.724h-0.028c-0.057,1.289-0.099,2.76-0.17,3.951l-0.17,3.625h-1.997l0.609-9.544h2.875
			l0.935,3.186c0.297,1.104,0.595,2.294,0.807,3.414h0.042c0.269-1.104,0.595-2.365,0.906-3.427l1.02-3.172h2.818l0.523,9.544
			L29.713,30.883L29.713,30.883z M37.189,25.219c1.685,0.623,2.478,1.501,2.478,2.846c0,1.601-1.231,2.959-3.853,2.959
			c-1.09,0-2.166-0.282-2.705-0.58l0.439-1.784c0.581,0.297,1.473,0.595,2.393,0.595c0.992,0,1.516-0.411,1.516-1.034
			c0-0.595-0.453-0.935-1.6-1.345c-1.586-0.552-2.621-1.43-2.621-2.818c0-1.628,1.359-2.875,3.611-2.875
			c1.076,0,1.869,0.227,2.437,0.481l-0.481,1.742c-0.382-0.184-1.062-0.453-1.996-0.453c-0.936,0-1.389,0.425-1.389,0.92
			C35.419,24.483,35.957,24.752,37.189,25.219z"/>
		<path d="M48,0H5C2.243,0,0,2.243,0,5v43c0,2.757,2.243,5,5,5h43c2.757,0,5-2.243,5-5V5C53,2.243,50.757,0,48,0z M51,48
			c0,1.654-1.346,3-3,3H5c-1.654,0-3-1.346-3-3V5c0-1.654,1.346-3,3-3h43c1.654,0,3,1.346,3,3V48z"/>
	</g>
</g>
<g>
</g>
<g>
</g>
<g>
</g>
<g>
</g>
<g>
</g>
<g>
</g>
<g>
</g>
<g>
</g>
<g>
</g>
<g>
</g>
<g>
</g>
<g>
</g>
<g>
</g>
<g>
</g>
<g>
</g>
</svg>
